<svg version="1.1" xmlns="http://www.w3.org/2000/svg" xmlns:xlink="http://www.w3.org/1999/xlink" width="1408.04" height="1484.1333" viewBox="0,0,242.86719,256"><defs><clipPath id="clip-1"><path d="M0,1113.098h1056.032v-1113.098h-1056.032z" id="clipPath20" fill="none"></path></clipPath></defs><g fill="none" fill-rule="nonzero" stroke="none" stroke-width="1" stroke-linecap="butt" stroke-linejoin="miter" stroke-miterlimit="10" stroke-dasharray="" stroke-dashoffset="0" font-family="none" font-weight="none" font-size="none" text-anchor="none" style="mix-blend-mode: normal"><g transform="translate(-0.00392,-0.00023) scale(0.17249,0.17249)"><g transform="translate(0,1484.1333) scale(1.33333,-1.33333)" id="g8"><g transform="translate(912.4562,1006.6698)" id="g10" fill="#ffffff"><path d="M0,0l11.409,20.861l20.86,11.409l-20.86,11.41l-11.409,20.861l-11.41,-20.861l-20.861,-11.41l20.861,-11.409z" id="path12"></path></g><g id="g14"><g clip-path="url(#clip-1)" id="g16"><g transform="translate(53.6827,170.5243)" id="g22" fill="#ffffff"><path d="M0,0c-7.85,5.299 -18.363,7.755 -26.633,11.633c-7.288,3.36 -12.754,7.756 -12.754,16.155c0,8.143 5.306,11.848 12.868,11.538c9.545,-0.397 25.229,-12.517 28.312,-21.694h0.701l-1.374,21.072c0,0 -14.234,3.697 -26.21,3.695c-16.26,0 -28.593,-12.536 -28.593,-27.271c0,-10.081 5.015,-13.313 12.724,-17.706c8.832,-5.041 20.185,-8.273 27.473,-13.314c4.486,-3.101 8.58,-9.822 8.58,-15.509c0,-7.624 -4.886,-13.468 -13.156,-13.44c-11.261,0.041 -20.119,13.546 -30.322,22.547l-1.382,-21.24c10.166,-2.636 20.622,-3.987 31.124,-4.022c16.959,0 29.295,13.83 29.295,27.4c0.304,8.139 -3.757,15.823 -10.653,20.156" id="path24"></path></g><g transform="translate(125.7081,126.5858)" id="g26" fill="#ffffff"><path d="M0,0h-5.493v41.474c2.835,0.052 16.523,-0.139 20.079,-8.568h0.395l-0.159,21.016h-0.475c0,0 -4.585,-8.442 -19.736,-9.654v1.412h-0.107v36.951h4.896c10.148,0 21.515,-7.992 31.425,-14.084h0.237l-1.931,16.229h-53.614v-86.931h54.806l2.747,17.23h-0.235c-10.865,-7.285 -22.689,-15.075 -32.835,-15.075" id="path28"></path></g><g transform="translate(268.7589,147.6083)" id="g30" fill="#ffffff"><path d="M0,0c-7.524,-11.223 -21.505,-17.444 -30.104,-17.444c-17.074,0 -29.252,13.613 -29.252,41.077c0,21.726 7.641,39.642 23.641,39.642c11.225,0 13.317,-15.195 18.093,-25.342l14.864,13.282c-8.6,8.77 -20.316,13.791 -32.598,13.971c-25.792,0 -44.653,-17.552 -44.653,-45.852c0,-26.03 17.193,-43.941 41.672,-43.941c16.24,0 32.012,10.999 39.775,23.772z" id="path32"></path></g><g transform="translate(333.3453,167.1757)" id="g34" fill="#ffffff"><path d="M0,0c-2.145,0 -5.35,0.063 -9.064,0v42.271h7.396c13.496,0 19.825,-8.114 19.825,-20.66c0,-12.417 -6.921,-21.611 -18.157,-21.611M36.429,19.577c0.879,16.578 -12.418,24.608 -37.137,24.608h-27.35v-86.93h18.992v39.639h3.812c2.398,0 2.398,0 4.385,-0.117l15.859,-39.508h21.954l-20.244,40.953c11.697,3.712 19.085,9.259 19.729,21.355" id="path36"></path></g><g transform="translate(431.8698,126.5858)" id="g38" fill="#ffffff"><path d="M0,0h-5.494v41.474c2.835,0.052 16.524,-0.139 20.08,-8.568h0.395l-0.159,21.016h-0.475c0,0 -4.586,-8.442 -19.737,-9.654v1.412h-0.106v36.951h4.895c10.149,0 21.516,-7.992 31.426,-14.084h0.236l-1.93,16.229h-53.615v-86.931h54.807l2.746,17.23h-0.235c-10.865,-7.285 -22.689,-15.075 -32.834,-15.075" id="path40"></path></g><g transform="translate(565.2404,189.8524)" id="g42" fill="#ffffff"><path d="M0,0h0.239l-1.79,21.508h-67.355l-1.799,-21.506h0.238c9.555,8 16.782,19.357 23.949,19.357h1.799v-84.782h18.985v84.78h1.909c7.164,0 14.277,-11.357 23.825,-19.357" id="path44"></path></g><g transform="translate(699.1115,125.6835)" id="g46" fill="#ffffff"><path d="M0,0c-11.261,0.041 -20.119,13.546 -30.321,22.547l-1.384,-21.24c10.167,-2.636 20.623,-3.988 31.125,-4.022c16.959,0 29.295,13.83 29.295,27.4c0.305,8.139 -3.757,15.823 -10.653,20.156c-7.851,5.299 -18.364,7.755 -26.633,11.633c-7.288,3.36 -12.754,7.755 -12.754,16.155c0,8.142 5.306,11.848 12.868,11.538c9.545,-0.397 25.229,-12.518 28.313,-21.694h0.701l-1.374,21.072c0,0 -14.236,3.697 -26.21,3.695c-16.261,0 -28.594,-12.536 -28.594,-27.271c0,-10.081 5.016,-13.313 12.725,-17.706c8.832,-5.041 20.184,-8.273 27.472,-13.314c4.487,-3.101 8.579,-9.822 8.579,-15.51c0,-7.624 -4.884,-13.467 -13.155,-13.439" id="path48"></path></g><g transform="translate(793.5221,162.3387)" id="g50" fill="#ffffff"><path d="M0,0v0.003c-0.185,-0.023 -0.371,-0.033 -0.558,-0.033h-9.265v47.139h7.042c12.646,0 19.284,-10.144 19.284,-23.883c0,-13.369 -6.08,-21.907 -16.503,-23.226M1.16,49.027h-29.969v-86.937h18.986v35.722l9.761,0.114c0.416,-0.009 0.828,-0.012 1.222,-0.012c20.888,0 35.167,10.504 35.167,26.746c0,15.287 -12.722,24.367 -35.167,24.367" id="path52"></path></g><g transform="translate(928.8209,130.2919)" id="g54" fill="#ffffff"><path d="M0,0h0.005c-14.712,-7.942 -31.187,2.982 -43.545,25.892c-12.137,22.489 -13.142,41.207 2.098,49.432c14.607,7.88 31.081,-3.041 43.441,-25.951c12.182,-22.593 13.135,-41.209 -1.999,-49.373M-41.405,77.513c-23.959,-12.925 -33.177,-37.84 -19.798,-62.644c13.323,-24.694 38.26,-29.422 60.961,-17.176c23.954,12.927 33.17,37.842 19.796,62.642c-13.324,24.698 -38.261,29.426 -60.959,17.178" id="path56"></path></g><g transform="translate(1054.2418,211.3602)" id="g58" fill="#ffffff"><path d="M0,0h-67.355l-1.798,-21.506h0.238c9.555,8 16.782,19.358 23.949,19.358h1.798v-84.783h18.985v84.781h1.909c7.164,0 14.277,-11.358 23.825,-19.358h0.239z" id="path60"></path></g><g transform="translate(630.8937,799.0077)" id="g62" fill="#ffffff"><path d="M0,0c-4.149,40.979 -38.85,73.067 -80.904,73.067c-21.306,0 -41.447,-8.182 -56.713,-23.039c-14.072,-13.696 -22.576,-31.683 -24.277,-51.073l-180.958,-1.167c-6.65,4.692 -13.313,9.502 -19.863,14.37c-60.258,44.783 -73.609,66.534 -76.137,75.636c60.732,127.685 189.301,210.352 334.414,210.352c179.08,0 328.885,-127.558 363.122,-296.477zM-145.807,-0.94c3.608,32.931 31.137,58.007 64.903,58.007c33.256,0 60.768,-24.988 64.795,-57.171zM-470.372,-13.895c2.799,17.752 6.888,35.347 12.231,52.438c3.236,10.349 6.899,20.464 10.944,30.344c4.441,-6.805 10.69,-14.267 18.847,-22.486c13.552,-13.654 32.424,-29.496 56.091,-47.085c28.993,-21.547 60.143,-41.96 83.106,-56.291c-38.131,2.596 -118.251,11.664 -181.219,43.08M-383.772,-241.353c-25.075,31.657 -54.961,76.381 -71.59,126.202c10.059,-14.645 22.788,-31.745 37.734,-48.914c22.957,-26.371 46.376,-47.343 69.606,-62.333c26.77,-17.276 53.402,-26.654 79.3,-27.941c-4.261,-7.218 -16.319,-23.31 -50.403,-56.693c-11.032,10.064 -37.348,35.218 -64.647,69.679M-321.553,-391.179c64.147,-43.591 139.225,-66.631 217.115,-66.631c52.167,0 102.776,10.206 150.422,30.334c46.017,19.438 87.345,47.266 122.831,82.708c35.488,35.444 63.351,76.717 82.814,122.676c20.153,47.587 30.371,98.133 30.371,150.233c0,52.099 -10.218,102.644 -30.371,150.231c-19.463,45.96 -47.326,87.233 -82.814,122.676c-35.486,35.442 -76.814,63.269 -122.831,82.709c-47.646,20.127 -98.255,30.333 -150.422,30.333c-84.028,0 -163.925,-26.474 -231.055,-76.56c-32.295,-24.095 -60.525,-52.936 -83.906,-85.719c-23.694,-33.222 -41.855,-69.732 -53.979,-108.516c-6.698,-21.417 -11.535,-43.587 -14.377,-65.896l0.091,-0.011l-0.118,-0.214c46.816,-25.913 104.317,-38.445 144.309,-44.395c21.033,-3.129 39.343,-4.814 52.761,-5.724l-0.027,-0.358c7.307,-0.537 13.285,-0.917 17.536,-1.168c7.006,-116.341 39.133,-208.995 50.988,-239.765l-79.289,-1.877c19.105,19.028 32.96,34.378 41.234,45.706c8.725,11.944 11.425,19.565 9.031,25.486c-1.801,4.451 -6.028,6.444 -9.419,6.444l-0.133,-0.001c-0.587,-0.009 -1.164,-0.014 -1.751,-0.014c-56.953,0 -109.032,45.943 -142.824,84.709c-37.711,43.262 -61.609,87.441 -61.846,87.883l-20.747,38.624l5.768,-43.461c9.519,-71.728 52.068,-137.918 86.087,-180.814c36.663,-46.232 70.608,-75.289 72.035,-76.503l5.528,-4.704l0.25,0.242l119.924,2.841l-4.789,10.927c-0.446,1.016 -42.154,97.514 -52.902,228.813l99.75,-172.736c-9.18,-10.856 -15.463,-23.621 -16.331,-37.714c-0.113,-1.831 -0.113,-3.761 0.749,-5.386c1.292,-2.437 4.323,-3.807 5.049,-6.466c0.887,-3.248 -3.362,-6.516 -6.31,-4.854c-5.105,-3.753 -3.485,-12.386 1.515,-16.274c4.999,-3.889 11.812,-4.328 18.163,-4.459c12.608,-0.26 25.228,0.054 37.806,0.946c5.846,0.414 11.798,0.944 17.508,-0.367c4.011,-0.921 7.757,-2.722 11.671,-3.992c10.498,-3.407 21.829,-2.894 32.85,-2.166c2.581,0.171 5.245,0.341 7.688,-0.502c2.713,-0.937 4.85,-3.018 7.358,-4.408c6.427,-3.563 14.384,-2.233 21.544,-0.537c2.363,0.561 4.828,1.152 7.192,0.598c2.784,-0.654 4.956,-2.782 7.554,-3.974c5.022,-2.299 10.884,-0.865 16.404,-1.22c5.993,-0.386 11.75,-2.929 17.754,-2.809c6.005,0.12 12.755,4.668 11.779,10.549c-0.615,3.713 -4.006,7.849 -1.45,10.628c1.003,1.09 2.591,1.391 4.068,1.566c6.212,0.73 12.566,0.254 18.597,-1.393c6.142,-1.678 12.136,-4.583 18.502,-4.342c6.367,0.242 13.219,5.408 12.109,11.634c-0.898,5.036 -6.402,7.954 -11.503,8.669c-5.102,0.714 -10.398,0.004 -15.365,1.362c-2.748,0.752 -5.75,2.95 -5.172,5.721c0.235,1.127 1.032,2.044 1.807,2.901c10.348,11.446 22.211,22.787 25.762,37.757c1.575,6.638 1.373,13.548 1.162,20.364c-0.351,11.364 -0.417,38.593 0.634,45.265c0.265,4.493 3.537,8.637 6.834,11.957c0.627,0.951 1.559,1.603 2.622,2.103c0.593,0.357 1.18,0.58 1.749,0.682c0.776,0.256 1.569,0.477 2.326,0.707c3.793,1.152 7.352,3.063 10.401,5.583c1.668,1.378 3.348,3.013 5.505,3.255c1.756,0.198 3.45,-0.581 5.14,-1.096c4.413,-1.346 9.36,-0.872 13.434,1.286c0.743,0.91 -0.564,2.07 -0.865,3.202c-0.657,2.475 3.529,3.704 3.92,6.233c0.202,1.307 -0.689,2.506 -1.529,3.532c-1.471,1.797 -2.943,3.594 -4.414,5.391c-3.523,4.302 -7.662,8.944 -13.227,9.43c-2.989,0.261 -5.917,-0.752 -8.852,-1.369c-6.696,-1.407 -13.821,-0.729 -20.126,1.913c-3.812,1.599 -7.428,3.923 -11.539,4.388c-4.765,0.539 -9.399,-1.5 -13.756,-3.491c-1.346,-0.615 -2.691,-1.231 -4.037,-1.845c-0.16,0.288 -0.392,0.54 -0.621,0.78c-0.745,0.786 -1.518,1.562 -2.447,2.12c-2.576,1.543 -5.842,1.159 -8.797,0.591c-2.955,-0.567 -6.089,-1.254 -8.901,-0.188c0.739,-1.069 1.409,-2.185 2.004,-3.338l-1.612,0.937c0.638,-0.748 0.739,-1.792 0.937,-2.751c0.559,-2.705 2.134,-5.189 4.348,-6.86c-0.606,-0.081 -1.231,0 -1.799,0.224c1.791,-1.171 2.642,-3.617 4.516,-4.781c0.073,-0.045 0.148,-0.087 0.224,-0.128c-1.595,-4.275 -1.58,-9.303 -2.188,-13.83c-0.517,-3.851 2.55,-45.218 -1.657,-61.147c-0.918,-3.475 -2.302,-7.004 -5.031,-9.362c-2.73,-2.359 -7.116,-3.142 -9.969,-0.932c-2.023,1.567 -2.839,4.173 -3.765,6.548c-3.198,8.193 -9,15.365 -16.371,20.231c-5.086,3.359 -10.877,5.642 -15.648,9.427c-6.102,4.841 -10.089,11.768 -15.189,17.641c-8.095,9.321 -19.356,16.068 -31.6,18.002c-12.245,1.934 -25.376,-1.166 -34.923,-9.018c-14.033,-11.54 -19.1,-31.474 -33.609,-42.418c-3.456,-2.607 -7.331,-4.602 -11.098,-6.744c-6.188,-3.519 -12.201,-7.65 -17.735,-12.312l-110.844,191.947l0.159,0.275c-12.443,7.206 -37.11,22.291 -64.565,40.736l581.365,3.75c2.945,-18.758 4.48,-37.976 4.48,-57.546c0,-204.023 -166.193,-370.006 -370.474,-370.006c-146.203,0 -277.305,84.764 -337.409,217.011l-19.956,9.039l-1.113,-0.443c0.469,-1.171 0.948,-2.336 1.422,-3.466c28.935,-69.619 77.327,-128.908 139.941,-171.455" id="path64"></path></g><g transform="translate(281.7257,23.994)" id="g66" fill="#ffffff"><path d="M0,0l-6.489,-6.256l0.003,-0.006l-1.113,-1.082v17.429h-7.316v-33.515h7.316v15.16l1.467,1.468l10.93,-16.628h9.446l-15.259,21.178l1.614,1.521c4.693,4.647 9.927,7.821 13.932,10.722v0.094h-10.897c-0.093,-1.982 1.242,-5.341 -3.634,-10.085" id="path68"></path></g><path d="M314.09,0.563h7.32v33.515h-7.32z" id="path70" fill="#ffffff"></path><g transform="translate(340.2706,34.078)" id="g72" fill="#ffffff"><path d="M0,0l-0.693,-8.29h0.092c3.683,3.084 6.47,7.463 9.233,7.463h0.693v-32.688h7.319v32.687h0.737c2.761,0 5.504,-4.379 9.185,-7.463h0.092l-0.69,8.291z" id="path74"></path></g><g transform="translate(394.5216,1.3954)" id="g76" fill="#ffffff"><path d="M0,0h-2.117v15.99c1.093,0.019 6.37,-0.053 7.741,-3.303h0.152l-0.061,8.102h-0.183c0,0 -1.768,-3.255 -7.61,-3.723v0.545h-0.041v14.246h1.888c3.913,0 8.295,-3.082 12.116,-5.431h0.091l-0.745,6.259h-20.67v-33.517h21.13l1.059,6.644h-0.09c-4.189,-2.81 -8.748,-5.812 -12.66,-5.812" id="path78"></path></g><g transform="translate(445.3302,18.3348)" id="g80" fill="#ffffff"><path d="M0,0c-3.027,2.042 -7.08,2.99 -10.268,4.485c-2.81,1.296 -4.917,2.991 -4.917,6.228c0,3.141 2.045,4.568 4.96,4.449c3.681,-0.154 9.727,-4.827 10.916,-8.364h0.27l-0.529,8.124c0,0 -5.489,1.425 -10.105,1.425c-6.269,0 -11.024,-4.834 -11.024,-10.514c0,-3.887 1.933,-5.133 4.906,-6.827c3.404,-1.943 7.781,-3.189 10.591,-5.132c1.73,-1.197 3.308,-3.788 3.308,-5.98c0,-2.939 -1.884,-5.192 -5.072,-5.182c-4.341,0.017 -7.757,5.223 -11.69,8.693l-0.533,-8.189c3.919,-1.016 7.95,-1.537 12,-1.551c6.538,0 11.294,5.332 11.294,10.564c0.117,3.138 -1.449,6.101 -4.107,7.771" id="path82"></path></g><g transform="translate(492.5577,19.4384)" id="g84" fill="#ffffff"><path d="M0,0v-6.997c0,-7.412 -3.453,-10.817 -8.747,-10.817c-5.386,0 -8.703,4.505 -8.562,13.935v18.52h-7.32v-18.429c0,-9.197 4.143,-15.641 13.074,-15.641c8.746,0 12.475,4.512 12.475,12.66v6.767c0,6.445 0.552,10.956 1.427,14.641l-8.495,0.002c0.875,-3.684 6.148,-8.195 6.148,-14.641" id="path86"></path></g><g transform="translate(525.0656,17.0448)" id="g88" fill="#ffffff"><path d="M0,0c-0.826,0 -2.063,0.022 -3.494,0v16.297h2.851c5.204,0 7.644,-3.128 7.644,-7.965c0,-4.788 -2.669,-8.332 -7.001,-8.332M14.045,7.547c0.339,6.391 -4.787,9.486 -14.317,9.486h-10.545v-33.513h7.322v15.282h1.47c0.924,0 0.924,0 1.69,-0.045l6.114,-15.233h8.465l-7.805,15.789c4.509,1.431 7.358,3.571 7.606,8.234" id="path90"></path></g><g transform="translate(558.4083,34.078)" id="g92" fill="#ffffff"><path d="M0,0v-33.515h7.319v16.821c1.592,-0.017 6.129,-0.327 7.386,-3.304h0.153l-0.061,8.102h-0.184c0,0 -1.707,-3.133 -7.294,-3.692v14.76l1.292,0.001c3.912,0 8.24,-2.989 12.06,-5.337h0.093l-0.693,6.164z" id="path94"></path></g><g transform="translate(645.5675,2.7753)" id="g96" fill="#ffffff"><path d="M0,0c-6.582,0 -11.278,5.248 -11.278,15.836c0,8.377 2.946,15.284 9.115,15.284c4.327,0 5.134,-5.859 6.975,-9.771l5.731,5.121c-3.316,3.381 -7.833,5.317 -12.569,5.385c-9.943,0 -17.214,-6.765 -17.214,-17.677c0,-10.035 6.628,-16.941 16.066,-16.941c6.261,0 12.342,4.24 15.334,9.166l-0.554,0.321c-2.901,-4.326 -8.291,-6.724 -11.606,-6.724" id="path98"></path></g><g transform="translate(679.4337,12.827)" id="g100" fill="#ffffff"><path d="M0,0c0.322,0.875 0.479,1.179 0.893,2.146l4.948,12.058l4.433,-13.935zM8.537,22.218l-8.472,-19.703c-2.991,-6.812 -4.512,-10.175 -7.044,-14.778h9.709c-0.276,2.67 -5.026,6.209 -3.043,11.503l10.883,0.256l3.564,-11.759h7.721l-11.581,34.481z" id="path102"></path></g><g transform="translate(745.6061,34.079)" id="g104" fill="#ffffff"><path d="M0,0l-8.315,-16.908l-11.511,16.908h-6.093v-0.138l-0.259,-3.131l-0.18,-15.56c-0.035,-6.436 0.084,-8.878 -0.521,-14.686h7.573c-0.782,3.683 -5.866,7.762 -6.13,14.686l0.042,13.856l13.539,-21.226h0.183l11.305,22.791l-0.034,-30.107h7.18l-0.242,33.515z" id="path106"></path></g><g transform="translate(784.0255,15.1796)" id="g108" fill="#ffffff"><path d="M0,0v0.001c-0.071,-0.009 -0.143,-0.014 -0.215,-0.014h-3.572v18.175h2.715c4.876,0 7.435,-3.911 7.435,-9.209c0,-5.152 -2.344,-8.444 -6.363,-8.953M0.447,18.9h-11.553v-33.516h7.319v13.771l3.764,0.044c0.16,-0.004 0.319,-0.005 0.47,-0.005c8.054,0 13.559,4.05 13.559,10.314c0,5.892 -4.904,9.392 -13.559,9.392" id="path110"></path></g></g></g></g></g></g></svg>