<?xml version="1.0" encoding="UTF-8" standalone="no"?>
<!-- Created with Inkscape (http://www.inkscape.org/) -->

<svg
   version="1.1"
   id="svg2"
   width="1408.04"
   height="1484.1333"
   viewBox="0 0 1408.04 1484.1333"
   sodipodi:docname="Secret spot (2).ai"
   xmlns:inkscape="http://www.inkscape.org/namespaces/inkscape"
   xmlns:sodipodi="http://sodipodi.sourceforge.net/DTD/sodipodi-0.dtd"
   xmlns="http://www.w3.org/2000/svg"
   xmlns:svg="http://www.w3.org/2000/svg">
  <defs
     id="defs6">
    <clipPath
       clipPathUnits="userSpaceOnUse"
       id="clipPath20">
      <path
         d="M 0,1113.098 H 1056.032 V 0 H 0 Z"
         id="path18" />
    </clipPath>
  </defs>
  <sodipodi:namedview
     id="namedview4"
     pagecolor="#ffffff"
     bordercolor="#000000"
     borderopacity="0.25"
     inkscape:showpageshadow="2"
     inkscape:pageopacity="0.0"
     inkscape:pagecheckerboard="0"
     inkscape:deskcolor="#d1d1d1" />
  <g
     id="g8"
     inkscape:groupmode="layer"
     inkscape:label="Secret spot (2)"
     transform="matrix(1.3333333,0,0,-1.3333333,0,1484.1333)">
    <g
       id="g10"
       transform="translate(912.4562,1006.6698)">
      <path
         d="M 0,0 11.409,20.861 32.269,32.27 11.409,43.68 0,64.541 -11.41,43.68 -32.271,32.27 -11.41,20.861 Z"
         style="fill:#1e1e1b;fill-opacity:1;fill-rule:nonzero;stroke:none"
         id="path12" />
    </g>
    <g
       id="g14">
      <g
         id="g16"
         clip-path="url(#clipPath20)">
        <g
           id="g22"
           transform="translate(53.6827,170.5243)">
          <path
             d="m 0,0 c -7.85,5.299 -18.363,7.755 -26.633,11.633 -7.288,3.36 -12.754,7.756 -12.754,16.155 0,8.143 5.306,11.848 12.868,11.538 C -16.974,38.929 -1.29,26.809 1.793,17.632 H 2.494 L 1.12,38.704 c 0,0 -14.234,3.697 -26.21,3.695 -16.26,0 -28.593,-12.536 -28.593,-27.271 0,-10.081 5.015,-13.313 12.724,-17.706 8.832,-5.041 20.185,-8.273 27.473,-13.314 4.486,-3.101 8.58,-9.822 8.58,-15.509 0,-7.624 -4.886,-13.468 -13.156,-13.44 -11.261,0.041 -20.119,13.546 -30.322,22.547 l -1.382,-21.24 c 10.166,-2.636 20.622,-3.987 31.124,-4.022 16.959,0 29.295,13.83 29.295,27.4 C 10.957,-12.017 6.896,-4.333 0,0"
             style="fill:#1e1e1b;fill-opacity:1;fill-rule:nonzero;stroke:none"
             id="path24" />
        </g>
        <g
           id="g26"
           transform="translate(125.7081,126.5858)">
          <path
             d="m 0,0 h -5.493 v 41.474 c 2.835,0.052 16.523,-0.139 20.079,-8.568 h 0.395 l -0.159,21.016 h -0.475 c 0,0 -4.585,-8.442 -19.736,-9.654 V 45.68 H -5.496 V 82.631 H -0.6 c 10.148,0 21.515,-7.992 31.425,-14.084 h 0.237 L 29.131,84.776 H -24.483 V -2.155 h 54.806 l 2.747,17.23 H 32.835 C 21.97,7.79 10.146,0 0,0"
             style="fill:#1e1e1b;fill-opacity:1;fill-rule:nonzero;stroke:none"
             id="path28" />
        </g>
        <g
           id="g30"
           transform="translate(268.7589,147.6083)">
          <path
             d="m 0,0 c -7.524,-11.223 -21.505,-17.444 -30.104,-17.444 -17.074,0 -29.252,13.613 -29.252,41.077 0,21.726 7.641,39.642 23.641,39.642 11.225,0 13.317,-15.195 18.093,-25.342 l 14.864,13.282 c -8.6,8.77 -20.316,13.791 -32.598,13.971 -25.792,0 -44.653,-17.552 -44.653,-45.852 0,-26.03 17.193,-43.941 41.672,-43.941 16.24,0 32.012,10.999 39.775,23.772 z"
             style="fill:#1e1e1b;fill-opacity:1;fill-rule:nonzero;stroke:none"
             id="path32" />
        </g>
        <g
           id="g34"
           transform="translate(333.3453,167.1757)">
          <path
             d="m 0,0 c -2.145,0 -5.35,0.063 -9.064,0 v 42.271 h 7.396 c 13.496,0 19.825,-8.114 19.825,-20.66 C 18.157,9.194 11.236,0 0,0 M 36.429,19.577 C 37.308,36.155 24.011,44.185 -0.708,44.185 h -27.35 v -86.93 h 18.992 v 39.639 h 3.812 c 2.398,0 2.398,0 4.385,-0.117 L 14.99,-42.731 H 36.944 L 16.7,-1.778 c 11.697,3.712 19.085,9.259 19.729,21.355"
             style="fill:#1e1e1b;fill-opacity:1;fill-rule:nonzero;stroke:none"
             id="path36" />
        </g>
        <g
           id="g38"
           transform="translate(431.8698,126.5858)">
          <path
             d="m 0,0 h -5.494 v 41.474 c 2.835,0.052 16.524,-0.139 20.08,-8.568 h 0.395 l -0.159,21.016 h -0.475 c 0,0 -4.586,-8.442 -19.737,-9.654 v 1.412 h -0.106 v 36.951 h 4.895 c 10.149,0 21.516,-7.992 31.426,-14.084 h 0.236 l -1.93,16.229 H -24.484 V -2.155 h 54.807 l 2.746,17.23 H 32.834 C 21.969,7.79 10.145,0 0,0"
             style="fill:#1e1e1b;fill-opacity:1;fill-rule:nonzero;stroke:none"
             id="path40" />
        </g>
        <g
           id="g42"
           transform="translate(565.2404,189.8524)">
          <path
             d="m 0,0 h 0.239 l -1.79,21.508 H -68.906 L -70.705,0.002 h 0.238 c 9.555,8 16.782,19.357 23.949,19.357 h 1.799 v -84.782 h 18.985 v 84.78 h 1.909 C -16.661,19.357 -9.548,8 0,0"
             style="fill:#1e1e1b;fill-opacity:1;fill-rule:nonzero;stroke:none"
             id="path44" />
        </g>
        <g
           id="g46"
           transform="translate(699.1115,125.6835)">
          <path
             d="m 0,0 c -11.261,0.041 -20.119,13.546 -30.321,22.547 l -1.384,-21.24 c 10.167,-2.636 20.623,-3.988 31.125,-4.022 16.959,0 29.295,13.83 29.295,27.4 0.305,8.139 -3.757,15.823 -10.653,20.156 -7.851,5.299 -18.364,7.755 -26.633,11.633 -7.288,3.36 -12.754,7.755 -12.754,16.155 0,8.142 5.306,11.848 12.868,11.538 C 1.088,83.77 16.772,71.649 19.856,62.473 h 0.701 l -1.374,21.072 c 0,0 -14.236,3.697 -26.21,3.695 -16.261,0 -28.594,-12.536 -28.594,-27.271 0,-10.081 5.016,-13.313 12.725,-17.706 8.832,-5.041 20.184,-8.273 27.472,-13.314 4.487,-3.101 8.579,-9.822 8.579,-15.51 C 13.155,5.815 8.271,-0.028 0,0"
             style="fill:#1e1e1b;fill-opacity:1;fill-rule:nonzero;stroke:none"
             id="path48" />
        </g>
        <g
           id="g50"
           transform="translate(793.5221,162.3387)">
          <path
             d="M 0,0 V 0.003 C -0.185,-0.02 -0.371,-0.03 -0.558,-0.03 h -9.265 v 47.139 h 7.042 C 9.865,47.109 16.503,36.965 16.503,23.226 16.503,9.857 10.423,1.319 0,0 M 1.16,49.027 H -28.809 V -37.91 h 18.986 v 35.722 l 9.761,0.114 c 0.416,-0.009 0.828,-0.012 1.222,-0.012 20.888,0 35.167,10.504 35.167,26.746 0,15.287 -12.722,24.367 -35.167,24.367"
             style="fill:#1e1e1b;fill-opacity:1;fill-rule:nonzero;stroke:none"
             id="path52" />
        </g>
        <g
           id="g54"
           transform="translate(928.8209,130.2919)">
          <path
             d="m 0,0 h 0.005 c -14.712,-7.942 -31.187,2.982 -43.545,25.892 -12.137,22.489 -13.142,41.207 2.098,49.432 14.607,7.88 31.081,-3.041 43.441,-25.951 C 14.181,26.78 15.134,8.164 0,0 M -41.405,77.513 C -65.364,64.588 -74.582,39.673 -61.203,14.869 -47.88,-9.825 -22.943,-14.553 -0.242,-2.307 23.712,10.62 32.928,35.535 19.554,60.335 6.23,85.033 -18.707,89.761 -41.405,77.513"
             style="fill:#1e1e1b;fill-opacity:1;fill-rule:nonzero;stroke:none"
             id="path56" />
        </g>
        <g
           id="g58"
           transform="translate(1054.2418,211.3602)">
          <path
             d="m 0,0 h -67.355 l -1.798,-21.506 h 0.238 c 9.555,8 16.782,19.358 23.949,19.358 h 1.798 v -84.783 h 18.985 V -2.15 h 1.909 c 7.164,0 14.277,-11.358 23.825,-19.358 H 1.79 Z"
             style="fill:#1e1e1b;fill-opacity:1;fill-rule:nonzero;stroke:none"
             id="path60" />
        </g>
        <g
           id="g62"
           transform="translate(630.8937,799.0077)">
          <path
             d="m 0,0 c -4.149,40.979 -38.85,73.067 -80.904,73.067 -21.306,0 -41.447,-8.182 -56.713,-23.039 -14.072,-13.696 -22.576,-31.683 -24.277,-51.073 l -180.958,-1.167 c -6.65,4.692 -13.313,9.502 -19.863,14.37 -60.258,44.783 -73.609,66.534 -76.137,75.636 60.732,127.685 189.301,210.352 334.414,210.352 179.08,0 328.885,-127.558 363.122,-296.477 z m -145.807,-0.94 c 3.608,32.931 31.137,58.007 64.903,58.007 33.256,0 60.768,-24.988 64.795,-57.171 z m -324.565,-12.955 c 2.799,17.752 6.888,35.347 12.231,52.438 3.236,10.349 6.899,20.464 10.944,30.344 4.441,-6.805 10.69,-14.267 18.847,-22.486 13.552,-13.654 32.424,-29.496 56.091,-47.085 28.993,-21.547 60.143,-41.96 83.106,-56.291 -38.131,2.596 -118.251,11.664 -181.219,43.08 m 86.6,-227.458 c -25.075,31.657 -54.961,76.381 -71.59,126.202 10.059,-14.645 22.788,-31.745 37.734,-48.914 22.957,-26.371 46.376,-47.343 69.606,-62.333 26.77,-17.276 53.402,-26.654 79.3,-27.941 -4.261,-7.218 -16.319,-23.31 -50.403,-56.693 -11.032,10.064 -37.348,35.218 -64.647,69.679 m 62.219,-149.826 c 64.147,-43.591 139.225,-66.631 217.115,-66.631 52.167,0 102.776,10.206 150.422,30.334 46.017,19.438 87.345,47.266 122.831,82.708 35.488,35.444 63.351,76.717 82.814,122.676 20.153,47.587 30.371,98.133 30.371,150.233 0,52.099 -10.218,102.644 -30.371,150.231 -19.463,45.96 -47.326,87.233 -82.814,122.676 -35.486,35.442 -76.814,63.269 -122.831,82.709 -47.646,20.127 -98.255,30.333 -150.422,30.333 -84.028,0 -163.925,-26.474 -231.055,-76.56 -32.295,-24.095 -60.525,-52.936 -83.906,-85.719 -23.694,-33.222 -41.855,-69.732 -53.979,-108.516 -6.698,-21.417 -11.535,-43.587 -14.377,-65.896 l 0.091,-0.011 -0.118,-0.214 c 46.816,-25.913 104.317,-38.445 144.309,-44.395 21.033,-3.129 39.343,-4.814 52.761,-5.724 l -0.027,-0.358 c 7.307,-0.537 13.285,-0.917 17.536,-1.168 7.006,-116.341 39.133,-208.995 50.988,-239.765 l -79.289,-1.877 c 19.105,19.028 32.96,34.378 41.234,45.706 8.725,11.944 11.425,19.565 9.031,25.486 -1.801,4.451 -6.028,6.444 -9.419,6.444 l -0.133,-0.001 c -0.587,-0.009 -1.164,-0.014 -1.751,-0.014 -56.953,0 -109.032,45.943 -142.824,84.709 -37.711,43.262 -61.609,87.441 -61.846,87.883 l -20.747,38.624 5.768,-43.461 c 9.519,-71.728 52.068,-137.918 86.087,-180.814 36.663,-46.232 70.608,-75.289 72.035,-76.503 l 5.528,-4.704 0.25,0.242 119.924,2.841 -4.789,10.927 c -0.446,1.016 -42.154,97.514 -52.902,228.813 l 99.75,-172.736 c -9.18,-10.856 -15.463,-23.621 -16.331,-37.714 -0.113,-1.831 -0.113,-3.761 0.749,-5.386 1.292,-2.437 4.323,-3.807 5.049,-6.466 0.887,-3.248 -3.362,-6.516 -6.31,-4.854 -5.105,-3.753 -3.485,-12.386 1.515,-16.274 4.999,-3.889 11.812,-4.328 18.163,-4.459 12.608,-0.26 25.228,0.054 37.806,0.946 5.846,0.414 11.798,0.944 17.508,-0.367 4.011,-0.921 7.757,-2.722 11.671,-3.992 10.498,-3.407 21.829,-2.894 32.85,-2.166 2.581,0.171 5.245,0.341 7.688,-0.502 2.713,-0.937 4.85,-3.018 7.358,-4.408 6.427,-3.563 14.384,-2.233 21.544,-0.537 2.363,0.561 4.828,1.152 7.192,0.598 2.784,-0.654 4.956,-2.782 7.554,-3.974 5.022,-2.299 10.884,-0.865 16.404,-1.22 5.993,-0.386 11.75,-2.929 17.754,-2.809 6.005,0.12 12.755,4.668 11.779,10.549 -0.615,3.713 -4.006,7.849 -1.45,10.628 1.003,1.09 2.591,1.391 4.068,1.566 6.212,0.73 12.566,0.254 18.597,-1.393 6.142,-1.678 12.136,-4.583 18.502,-4.342 6.367,0.242 13.219,5.408 12.109,11.634 -0.898,5.036 -6.402,7.954 -11.503,8.669 -5.102,0.714 -10.398,0.004 -15.365,1.362 -2.748,0.752 -5.75,2.95 -5.172,5.721 0.235,1.127 1.032,2.044 1.807,2.901 10.348,11.446 22.211,22.787 25.762,37.757 1.575,6.638 1.373,13.548 1.162,20.364 -0.351,11.364 -0.417,38.593 0.634,45.265 0.265,4.493 3.537,8.637 6.834,11.957 0.627,0.951 1.559,1.603 2.622,2.103 0.593,0.357 1.18,0.58 1.749,0.682 0.776,0.256 1.569,0.477 2.326,0.707 3.793,1.152 7.352,3.063 10.401,5.583 1.668,1.378 3.348,3.013 5.505,3.255 1.756,0.198 3.45,-0.581 5.14,-1.096 4.413,-1.346 9.36,-0.872 13.434,1.286 0.743,0.91 -0.564,2.07 -0.865,3.202 -0.657,2.475 3.529,3.704 3.92,6.233 0.202,1.307 -0.689,2.506 -1.529,3.532 -1.471,1.797 -2.943,3.594 -4.414,5.391 -3.523,4.302 -7.662,8.944 -13.227,9.43 -2.989,0.261 -5.917,-0.752 -8.852,-1.369 -6.696,-1.407 -13.821,-0.729 -20.126,1.913 -3.812,1.599 -7.428,3.923 -11.539,4.388 -4.765,0.539 -9.399,-1.5 -13.756,-3.491 -1.346,-0.615 -2.691,-1.231 -4.037,-1.845 -0.16,0.288 -0.392,0.54 -0.621,0.78 -0.745,0.786 -1.518,1.562 -2.447,2.12 -2.576,1.543 -5.842,1.159 -8.797,0.591 -2.955,-0.567 -6.089,-1.254 -8.901,-0.188 0.739,-1.069 1.409,-2.185 2.004,-3.338 l -1.612,0.937 c 0.638,-0.748 0.739,-1.792 0.937,-2.751 0.559,-2.705 2.134,-5.189 4.348,-6.86 -0.606,-0.081 -1.231,0 -1.799,0.224 1.791,-1.171 2.642,-3.617 4.516,-4.781 0.073,-0.045 0.148,-0.087 0.224,-0.128 -1.595,-4.275 -1.58,-9.303 -2.188,-13.83 -0.517,-3.851 2.55,-45.218 -1.657,-61.147 -0.918,-3.475 -2.302,-7.004 -5.031,-9.362 -2.73,-2.359 -7.116,-3.142 -9.969,-0.932 -2.023,1.567 -2.839,4.173 -3.765,6.548 -3.198,8.193 -9,15.365 -16.371,20.231 -5.086,3.359 -10.877,5.642 -15.648,9.427 -6.102,4.841 -10.089,11.768 -15.189,17.641 -8.095,9.321 -19.356,16.068 -31.6,18.002 -12.245,1.934 -25.376,-1.166 -34.923,-9.018 -14.033,-11.54 -19.1,-31.474 -33.609,-42.418 -3.456,-2.607 -7.331,-4.602 -11.098,-6.744 -6.188,-3.519 -12.201,-7.65 -17.735,-12.312 l -110.844,191.947 0.159,0.275 c -12.443,7.206 -37.11,22.291 -64.565,40.736 l 581.365,3.75 c 2.945,-18.758 4.48,-37.976 4.48,-57.546 0,-204.023 -166.193,-370.006 -370.474,-370.006 -146.203,0 -277.305,84.764 -337.409,217.011 l -19.956,9.039 -1.113,-0.443 c 0.469,-1.171 0.948,-2.336 1.422,-3.466 28.935,-69.619 77.327,-128.908 139.941,-171.455"
             style="fill:#1e1e1b;fill-opacity:1;fill-rule:nonzero;stroke:none"
             id="path64" />
        </g>
        <g
           id="g66"
           transform="translate(281.7257,23.994)">
          <path
             d="m 0,0 -6.489,-6.256 0.003,-0.006 -1.113,-1.082 v 17.429 h -7.316 V -23.43 h 7.316 v 15.16 l 1.467,1.468 10.93,-16.628 h 9.446 L -1.015,-2.252 0.599,-0.731 C 5.292,3.916 10.526,7.09 14.531,9.991 v 0.094 H 3.634 C 3.541,8.103 4.876,4.744 0,0"
             style="fill:#1e1e1b;fill-opacity:1;fill-rule:nonzero;stroke:none"
             id="path68" />
        </g>
        <path
           d="m 314.09,0.563 h 7.32 v 33.515 h -7.32 z"
           style="fill:#1e1e1b;fill-opacity:1;fill-rule:nonzero;stroke:none"
           id="path70" />
        <g
           id="g72"
           transform="translate(340.2706,34.078)">
          <path
             d="m 0,0 -0.693,-8.29 h 0.092 c 3.683,3.084 6.47,7.463 9.233,7.463 h 0.693 v -32.688 h 7.319 v 32.687 h 0.737 c 2.761,0 5.504,-4.379 9.185,-7.463 h 0.092 L 25.968,0 Z"
             style="fill:#1e1e1b;fill-opacity:1;fill-rule:nonzero;stroke:none"
             id="path74" />
        </g>
        <g
           id="g76"
           transform="translate(394.5216,1.3954)">
          <path
             d="m 0,0 h -2.117 v 15.99 c 1.093,0.019 6.37,-0.053 7.741,-3.303 H 5.776 L 5.715,20.789 H 5.532 c 0,0 -1.768,-3.255 -7.61,-3.723 v 0.545 h -0.041 v 14.246 h 1.888 c 3.913,0 8.295,-3.082 12.116,-5.431 h 0.091 l -0.745,6.259 H -9.439 V -0.832 h 21.13 L 12.75,5.812 H 12.66 C 8.471,3.002 3.912,0 0,0"
             style="fill:#1e1e1b;fill-opacity:1;fill-rule:nonzero;stroke:none"
             id="path78" />
        </g>
        <g
           id="g80"
           transform="translate(445.3302,18.3348)">
          <path
             d="m 0,0 c -3.027,2.042 -7.08,2.99 -10.268,4.485 -2.81,1.296 -4.917,2.991 -4.917,6.228 0,3.141 2.045,4.568 4.96,4.449 3.681,-0.154 9.727,-4.827 10.916,-8.364 h 0.27 l -0.529,8.124 c 0,0 -5.489,1.425 -10.105,1.425 -6.269,0 -11.024,-4.834 -11.024,-10.514 0,-3.887 1.933,-5.133 4.906,-6.827 3.404,-1.943 7.781,-3.189 10.591,-5.132 1.73,-1.197 3.308,-3.788 3.308,-5.98 0,-2.939 -1.884,-5.192 -5.072,-5.182 -4.341,0.017 -7.757,5.223 -11.69,8.693 l -0.533,-8.189 c 3.919,-1.016 7.95,-1.537 12,-1.551 6.538,0 11.294,5.332 11.294,10.564 C 4.224,-4.633 2.658,-1.67 0,0"
             style="fill:#1e1e1b;fill-opacity:1;fill-rule:nonzero;stroke:none"
             id="path82" />
        </g>
        <g
           id="g84"
           transform="translate(492.5577,19.4384)">
          <path
             d="m 0,0 v -6.997 c 0,-7.412 -3.453,-10.817 -8.747,-10.817 -5.386,0 -8.703,4.505 -8.562,13.935 v 18.52 h -7.32 V -3.788 c 0,-9.197 4.143,-15.641 13.074,-15.641 8.746,0 12.475,4.512 12.475,12.66 v 6.767 c 0,6.445 0.552,10.956 1.427,14.641 l -8.495,0.002 C -5.273,10.957 0,6.446 0,0"
             style="fill:#1e1e1b;fill-opacity:1;fill-rule:nonzero;stroke:none"
             id="path86" />
        </g>
        <g
           id="g88"
           transform="translate(525.0656,17.0448)">
          <path
             d="m 0,0 c -0.826,0 -2.063,0.022 -3.494,0 v 16.297 h 2.851 c 5.204,0 7.644,-3.128 7.644,-7.965 C 7.001,3.544 4.332,0 0,0 m 14.045,7.547 c 0.339,6.391 -4.787,9.486 -14.317,9.486 H -10.817 V -16.48 h 7.322 v 15.282 h 1.47 c 0.924,0 0.924,0 1.69,-0.045 l 6.114,-15.233 h 8.465 L 6.439,-0.687 c 4.509,1.431 7.358,3.571 7.606,8.234"
             style="fill:#1e1e1b;fill-opacity:1;fill-rule:nonzero;stroke:none"
             id="path90" />
        </g>
        <g
           id="g92"
           transform="translate(558.4083,34.078)">
          <path
             d="m 0,0 v -33.515 h 7.319 v 16.821 c 1.592,-0.017 6.129,-0.327 7.386,-3.304 h 0.153 l -0.061,8.102 h -0.184 c 0,0 -1.707,-3.133 -7.294,-3.692 v 14.76 l 1.292,0.001 c 3.912,0 8.24,-2.989 12.06,-5.337 h 0.093 L 20.071,0 Z"
             style="fill:#1e1e1b;fill-opacity:1;fill-rule:nonzero;stroke:none"
             id="path94" />
        </g>
        <g
           id="g96"
           transform="translate(645.5675,2.7753)">
          <path
             d="m 0,0 c -6.582,0 -11.278,5.248 -11.278,15.836 0,8.377 2.946,15.284 9.115,15.284 4.327,0 5.134,-5.859 6.975,-9.771 l 5.731,5.121 c -3.316,3.381 -7.833,5.317 -12.569,5.385 -9.943,0 -17.214,-6.765 -17.214,-17.677 0,-10.035 6.628,-16.941 16.066,-16.941 6.261,0 12.342,4.24 15.334,9.166 L 11.606,6.724 C 8.705,2.398 3.315,0 0,0"
             style="fill:#1e1e1b;fill-opacity:1;fill-rule:nonzero;stroke:none"
             id="path98" />
        </g>
        <g
           id="g100"
           transform="translate(679.4337,12.827)">
          <path
             d="M 0,0 C 0.322,0.875 0.479,1.179 0.893,2.146 L 5.841,14.204 10.274,0.269 Z M 8.537,22.218 0.065,2.515 C -2.926,-4.297 -4.447,-7.66 -6.979,-12.263 H 2.73 c -0.276,2.67 -5.026,6.209 -3.043,11.503 l 10.883,0.256 3.564,-11.759 h 7.721 L 10.274,22.218 Z"
             style="fill:#1e1e1b;fill-opacity:1;fill-rule:nonzero;stroke:none"
             id="path102" />
        </g>
        <g
           id="g104"
           transform="translate(745.6061,34.079)">
          <path
             d="M 0,0 -8.315,-16.908 -19.826,0 h -6.093 v -0.138 l -0.259,-3.131 -0.18,-15.56 c -0.035,-6.436 0.084,-8.878 -0.521,-14.686 h 7.573 c -0.782,3.683 -5.866,7.762 -6.13,14.686 l 0.042,13.856 13.539,-21.226 h 0.183 l 11.305,22.791 -0.034,-30.107 h 7.18 L 6.537,0 Z"
             style="fill:#1e1e1b;fill-opacity:1;fill-rule:nonzero;stroke:none"
             id="path106" />
        </g>
        <g
           id="g108"
           transform="translate(784.0255,15.1796)">
          <path
             d="m 0,0 v 0.001 c -0.071,-0.009 -0.143,-0.014 -0.215,-0.014 h -3.572 v 18.175 h 2.715 c 4.876,0 7.435,-3.911 7.435,-9.209 C 6.363,3.801 4.019,0.509 0,0 m 0.447,18.9 h -11.553 v -33.516 h 7.319 v 13.771 l 3.764,0.044 c 0.16,-0.004 0.319,-0.005 0.47,-0.005 8.054,0 13.559,4.05 13.559,10.314 0,5.892 -4.904,9.392 -13.559,9.392"
             style="fill:#1e1e1b;fill-opacity:1;fill-rule:nonzero;stroke:none"
             id="path110" />
        </g>
      </g>
    </g>
  </g>
</svg>
